<?xml version="1.0" standalone="no"?>
<!DOCTYPE svg PUBLIC "-//W3C//DTD SVG 20010904//EN"
 "http://www.w3.org/TR/2001/REC-SVG-20010904/DTD/svg10.dtd">
<svg version="1.0" xmlns="http://www.w3.org/2000/svg"
 width="259.000000pt" height="248.000000pt" viewBox="0 0 259.000000 248.000000"
 preserveAspectRatio="xMidYMid meet">
<metadata>
Created by potrace 1.16, written by Peter Selinger 2001-2019
</metadata>
<g transform="translate(0.000000,248.000000) scale(0.100000,-0.100000)"
fill="#000000" stroke="none">
<path d="M1238 2468 c-8 -7 -95 -177 -193 -378 -98 -201 -180 -368 -184 -372
-3 -3 -186 -32 -406 -63 -449 -63 -448 -62 -453 -136 l-4 -44 301 -295 300
-295 -69 -385 c-38 -212 -70 -399 -70 -416 0 -17 9 -43 21 -58 42 -53 65 -45
452 160 194 103 357 187 362 187 6 0 168 -84 362 -187 382 -202 401 -209 448
-161 16 15 25 36 25 55 0 17 -29 205 -65 418 l-65 387 295 295 c292 292 295
295 295 337 0 32 -5 46 -25 61 -27 22 -30 22 -505 88 -178 24 -328 48 -331 52
-4 4 -83 162 -175 352 -91 190 -178 360 -191 378 -21 27 -30 32 -67 32 -23 0
-49 -6 -58 -12z m302 -775 c35 -73 66 -126 79 -133 12 -6 172 -32 356 -58 184
-26 335 -49 334 -52 0 -3 -105 -106 -233 -230 -128 -124 -241 -239 -251 -256
-18 -31 -17 -36 40 -362 31 -182 55 -336 53 -341 -1 -6 -138 62 -303 150 -248
133 -304 160 -330 156 -16 -3 -162 -76 -323 -162 -162 -86 -295 -155 -297
-153 -2 2 20 138 50 303 29 165 57 322 61 350 l7 49 -253 248 c-154 151 -247
249 -239 252 8 3 159 25 337 50 177 25 331 50 342 56 17 9 208 384 297 582
l26 59 95 -193 c52 -106 120 -248 152 -315z"/>
</g>
</svg>
